#!OML:ASF H:\BabyWalks\Project 1\Capture day 1\Session 1\baby.ASF
:FULLY-SPECIFIED
:DEGREES
1027
root -29.3216 17.3147 -3.50989 -467.563 82.3077 -455.204
lowerback 10.7837 4.11565 1.47739
upperback 2.56187 5.7015 -0.844823
thorax -3.118 2.86907 -2.45088
lowerneck -0.0754087 -7.39258 4.39148
upperneck 1.83095 -9.86765 -0.326369
head 0.340533 -4.90209 -0.82087
rclavicle -5.00875e-014 -1.74931e-014
rhumerus 2.49996 24.1367 -34.3357
rradius 93.5828
rwrist 0.835987
rhand -23.3543 -1.74691
rfingers 7.12502
rthumb 3.10092 -31.7041
lclavicle -5.00875e-014 -1.74931e-014
lhumerus 3.84364 -21.5665 26.5547
lradius 98.9365
lwrist 8.2539
lhand -8.35523 -5.08753
lfingers 7.12502
lthumb 17.567 24.1388
rfemur 16.3474 10.9241 21.2123
rtibia 5.51072
rfoot -7.8282 -12.1326
rtoes -17.8422
lfemur 1.80075 -12.5771 -4.2617
ltibia 30.6737
lfoot -24.6733 10.84
ltoes -7.68617
1028
root -29.3363 17.3196 -3.56752 -464.403 83.1584 -452.092
lowerback 10.8376 3.96716 1.50522
upperback 2.50332 5.51517 -0.47682
thorax -3.25206 2.7706 -2.07129
lowerneck -0.134344 -7.17846 4.27335
upperneck 2.05279 -9.57346 -1.52925
head 0.370566 -4.7639 -1.17943
rclavicle 4.42793e-014 -5.08889e-014
rhumerus 1.2096 25.5092 -35.9838
rradius 93.2225
rwrist 0.807431
rhand -23.0316 -1.80143
rfingers 7.12502
rthumb 3.41262 -31.7539
lclavicle 4.42793e-014 -5.08889e-014
lhumerus 5.86019 -19.7595 24.9445
lradius 98.9024
lwrist 8.03491
lhand -9.01016 -5.40703
lfingers 7.12502
lthumb 16.9367 23.8745
rfemur 15.3215 11.5713 20.2218
rtibia 7.3195
rfoot -8.70388 -12.2387
rtoes -18.0627
lfemur 2.13087 -12.0963 -5.32501
ltibia 30.2604
lfoot -24.3406 10.9664
ltoes -7.8076
1029
root -29.3504 17.3238 -3.62497 -460.311 83.9937 -448.057
lowerback 10.8969 3.80512 1.49032
upperback 2.45113 5.30926 -0.0879874
thorax -3.38671 2.66388 -1.64337
lowerneck -0.189743 -6.93978 4.14775
upperneck 2.23347 -9.23862 -2.74906
head 0.391976 -4.60599 -1.54645
rclavicle 1.97542e-014 -2.38542e-015
rhumerus -0.0769042 26.7747 -37.5847
rradius 92.8266
rwrist 0.822621
rhand -22.7122 -1.83751
rfingers 7.12502
rthumb 3.72106 -31.7848
lclavicle 1.97542e-014 -2.38542e-015
lhumerus 7.69561 -17.8813 23.4343
lradius 98.7429
lwrist 7.76908
lhand -9.72114 -5.72221
lfingers 7.12502
lthumb 16.2522 23.6166
rfemur 14.4322 12.227 19.2088
rtibia 8.78727
rfoot -9.40249 -12.3227
rtoes -18.2976
lfemur 2.44446 -11.5951 -6.38669
ltibia 29.8337
lfoot -23.9964 11.0788
ltoes -7.95334
1030
root -29.364 17.3274 -3.68219 -454.902 84.7971 -442.716
lowerback 10.9708 3.62644 1.44218
upperback 2.39947 5.08061 0.315815
thorax -3.53065 2.54723 -1.17855
lowerneck -0.277124 -6.6806 4.03022
upperneck 2.43376 -8.86911 -4.00555
head 0.428477 -4.43084 -1.93451
rclavicle 7.10655e-015 -1.03368e-014
rhumerus -1.36022 27.9466 -39.1342
rradius 92.401
rwrist 0.894138
rhand -22.4425 -1.84821
rfingers 7.12502
rthumb 3.98149 -31.7908
lclavicle 7.10655e-015 -1.03368e-014
lhumerus 9.34919 -15.959 22.0036
lradius 98.4788
lwrist 7.52446
lhand -10.4651 -5.99697
lfingers 7.12502
lthumb 15.5357 23.3989
rfemur 13.6064 12.8855 18.1743
rtibia 10.0655
rfoot -10.0041 -12.39
rtoes -18.5351
lfemur 2.74273 -11.0871 -7.44703
ltibia 29.393
lfoot -23.6306 11.1856
ltoes -8.14349
1031
root -29.3769 17.3307 -3.73916 -447.569 85.5467 -435.461
lowerback 11.0594 3.43538 1.35977
upperback 2.34546 4.83473 0.731961
thorax -3.68571 2.42356 -0.679172
lowerneck -0.290098 -6.38767 3.88158
upperneck 2.49073 -8.4492 -5.20531
head 0.418637 -4.22927 -2.29908
rclavicle -2.99171e-014 1.11319e-014
rhumerus -2.64836 29.028 -40.6243
rradius 91.9495
rwrist 1.02558
rhand -22.1975 -1.82088
rfingers 7.12502
rthumb 4.21807 -31.7589
lclavicle -2.99171e-014 1.11319e-014
lhumerus 10.8354 -14.0197 20.6439
lradius 98.1246
lwrist 7.36594
lhand -11.2258 -6.20185
lfingers 7.12502
lthumb 14.8029 23.2495
rfemur 12.8098 13.471 17.0995
rtibia 11.2134
rfoot -10.5358 -12.3715
rtoes -18.7928
lfemur 3.02073 -10.5689 -8.50751
ltibia 28.9407
lfoot -23.247 11.291
ltoes -8.36292
1032
root -29.3889 17.3334 -3.7957 -437.569 86.2055 -425.549
lowerback 11.1296 3.2367 1.22314
upperback 2.30819 4.57585 1.17502
thorax -3.81528 2.29618 -0.116122
lowerneck -0.30933 -6.07726 3.7325
upperneck 2.51123 -8.00253 -6.41415
head 0.404151 -4.01262 -2.67263
rclavicle 2.74571e-015 -6.36111e-015
rhumerus -3.91424 30.0171 -42.0071
rradius 91.4747
rwrist 1.17824
rhand -22.0259 -1.74641
rfingers 7.12502
rthumb 4.38373 -31.681
lclavicle 2.74571e-015 -6.36111e-015
lhumerus 12.1684 -12.0624 19.3689
lradius 97.6907
lwrist 7.34355
lhand -12.0192 -6.32912
lfingers 7.12502
lthumb 14.0385 23.1768
rfemur 12.0346 14.0394 16.004
rtibia 12.2648
rfoot -11.0168 -12.3354
rtoes -19.0571
lfemur 3.27847 -10.0485 -9.56727
ltibia 28.4784
lfoot -22.8537 11.3905
ltoes -8.62103
1033
root -29.3998 17.3356 -3.85182 -424.085 86.7037 -412.162
lowerback 11.1806 3.0359 1.04539
upperback 2.28737 4.31271 1.64714
thorax -3.917 2.16934 0.50447
lowerneck -0.332453 -5.75606 3.58457
upperneck 2.49668 -7.53882 -7.62503
head 0.385188 -3.78523 -3.05356
rclavicle 5.80133e-014 7.72775e-015
rhumerus -5.16258 30.9174 -43.2767
rradius 90.9687
rwrist 1.35936
rhand -21.9597 -1.6237
rfingers 7.12502
rthumb 4.4477 -31.557
lclavicle 5.80133e-014 7.72775e-015
lhumerus 13.37 -10.1043 18.1776
lradius 97.1801
lwrist 7.45724
lhand -12.8399 -6.3754
lfingers 7.12502
lthumb 13.2475 23.1836
rfemur 11.2729 14.5952 14.9031
rtibia 13.2383
rfoot -11.4565 -12.2853
rtoes -19.3283
lfemur 3.52002 -9.54592 -10.6186
ltibia 28.0093
lfoot -22.4537 11.4979
ltoes -8.86684
1034
root -29.4096 17.3372 -3.90768 -407.073 86.9731 -395.256
lowerback 11.2283 2.83018 0.836722
upperback 2.27363 4.04222 2.13303
thorax -4.00635 2.04097 1.16053
lowerneck -0.362819 -5.42285 3.43062
upperneck 2.45836 -7.05668 -8.82298
head 0.367155 -3.54628 -3.43634
rclavicle 2.91841e-014 9.14409e-015
rhumerus -6.39357 31.7406 -44.4487
rradius 90.4346
rwrist 1.54009
rhand -21.9508 -1.47354
rfingers 7.12502
rthumb 4.45627 -31.4067
lclavicle 2.91841e-014 9.14409e-015
lhumerus 14.4389 -8.16324 17.0435
lradius 96.5948
lwrist 7.70279
lhand -13.687 -6.37092
lfingers 7.12502
lthumb 12.4309 23.2394
rfemur 10.5174 15.1379 13.783
rtibia 14.147
rfoot -11.8652 -12.2188
rtoes -19.5996
lfemur 3.74332 -9.062 -11.6767
ltibia 27.5357
lfoot -22.0477 11.6239
ltoes -9.11086
1035
root -29.4184 17.3384 -3.96324 -388.745 86.9376 -377.047
lowerback 11.2655 2.62543 0.610005
upperback 2.26762 3.77363 2.63547
thorax -4.07746 1.9155 1.84723
lowerneck -0.395273 -5.08478 3.2783
upperneck 2.39283 -6.56634 -10.0123
head 0.34712 -3.30048 -3.82366
rclavicle -1.32937e-014 -3.18055e-015
rhumerus -7.60815 32.4817 -45.5184
rradius 89.8694
rwrist 1.71706
rhand -22.0006 -1.30984
rfingers 7.12502
rthumb 4.40819 -31.244
lclavicle -1.32937e-014 -3.18055e-015
lhumerus 15.3957 -6.24768 15.9697
lradius 95.9252
lwrist 8.04532
lhand -14.5682 -6.33969
lfingers 7.12502
lthumb 11.5812 23.3203
rfemur 9.76003 15.6737 12.6584
rtibia 14.9992
rfoot -12.2485 -12.1391
rtoes -19.8526
lfemur 3.94684 -8.59614 -12.7273
ltibia 27.0609
lfoot -21.6574 11.7668
ltoes -9.31263
1036
root -29.4261 17.339 -4.01854 -372.419 86.607 -360.849
lowerback 11.2952 2.42532 0.369079
upperback 2.26775 3.51194 3.14879
thorax -4.1328 1.79514 2.55592
lowerneck -0.422325 -4.74572 3.13269
upperneck 2.29946 -6.07376 -11.193
head 0.322997 -3.05031 -4.2165
rclavicle 3.49861e-014 -2.38542e-015
rhumerus -8.8127 33.1357 -46.4894
rradius 89.2703
rwrist 1.89628
rhand -22.0869 -1.1497
rfingers 7.12502
rthumb 4.32486 -31.0855
lclavicle 3.49861e-014 -2.38542e-015
lhumerus 16.254 -4.37151 14.9473
lradius 95.1627
lwrist 8.44178
lhand -15.5279 -6.33675
lfingers 7.12502
lthumb 10.6556 23.3731
rfemur 8.99776 16.1995 11.5227
rtibia 15.8029
rfoot -12.6138 -12.042
rtoes -20.0812
lfemur 4.13394 -8.15404 -13.7782
ltibia 26.587
lfoot -21.2894 11.9312
ltoes -9.4493
1037
root -29.4328 17.3391 -4.07351 -359.912 86.0416 -348.482
lowerback 11.3412 2.22863 0.137487
upperback 2.26149 3.25834 3.66323
thorax -4.19679 1.67994 3.26226
lowerneck -0.43964 -4.40246 2.99455
upperneck 2.18457 -5.57497 -12.3601
head 0.296523 -2.79352 -4.61368
rclavicle -1.66979e-014 -2.06736e-014
rhumerus -10.013 33.7079 -47.385
rradius 88.6408
rwrist 2.08055
rhand -22.1913 -1.00334
rfingers 7.12502
rthumb 4.22401 -30.9412
lclavicle -1.66979e-014 -2.06736e-014
lhumerus 17.015 -2.54997 13.9535
lradius 94.3013
lwrist 8.85822
lhand -16.429 -6.33155
lfingers 7.12502
lthumb 9.78631 23.4211
rfemur 8.22408 16.721 10.3823
rtibia 16.5633
rfoot -12.9591 -11.9266
rtoes -20.2918
lfemur 4.30028 -7.7076 -14.819
ltibia 26.1171
lfoot -20.9366 12.12
ltoes -9.57035
1038
root -29.4387 17.3386 -4.12824 -351.01 85.3313 -339.729
lowerback 11.3893 2.03859 -0.078314
upperback 2.2584 3.01753 4.1797
thorax -4.25196 1.57216 3.96405
lowerneck -0.444942 -4.06215 2.88238
upperneck 2.04266 -5.0811 -13.5242
head 0.263676 -2.53512 -5.02289
rclavicle 1.07344e-014 -1.59028e-014
rhumerus -11.2088 34.1731 -48.198
rradius 87.9844
rwrist 2.27681
rhand -22.2826 -0.879005
rfingers 7.12502
rthumb 4.13591 -30.8186
lclavicle 1.07344e-014 -1.59028e-014
lhumerus 17.7071 -0.77652 12.9976
lradius 93.3355
lwrist 9.26228
lhand -17.269 -6.349
lfingers 7.12502
lthumb 8.97574 23.4401
rfemur 7.44164 17.2364 9.2456
rtibia 17.2845
rfoot -13.2884 -11.8008
rtoes -20.4767
lfemur 4.44398 -7.26331 -15.8443
ltibia 25.6537
lfoot -20.5937 12.3283
ltoes -9.69396
1039
root -29.4438 17.3375 -4.18261 -344.709 84.5292 -333.582
lowerback 11.445 1.8565 -0.279007
upperback 2.25988 2.79104 4.69557
thorax -4.30073 1.47241 4.65877
lowerneck -0.430388 -3.72102 2.80869
upperneck 1.92006 -4.5759 -15.1351
head 0.201518 -2.27331 -4.99733
rclavicle -2.72832e-014 -4.45278e-014
rhumerus -12.3892 34.5289 -48.9257
rradius 87.303
rwrist 2.48042
rhand -22.3423 -0.772688
rfingers 7.12502
rthumb 4.07819 -30.7134
lclavicle -2.72832e-014 -4.45278e-014
lhumerus 18.3389 0.953234 12.0818
lradius 92.2638
lwrist 9.64084
lhand -17.988 -6.38198
lfingers 7.12502
lthumb 8.28196 23.4357
rfemur 6.65119 17.7504 8.1118
rtibia 17.9686
rfoot -13.5941 -11.6667
rtoes -20.6618
lfemur 4.56706 -6.80614 -16.8536
ltibia 25.1992
lfoot -20.26 12.5474
ltoes -9.83801
1040
root -29.4482 17.3359 -4.23652 -340.156 83.6787 -329.188
lowerback 11.5322 1.67261 -0.441795
upperback 2.25119 2.56837 5.1945
thorax -4.36964 1.37512 5.31732
lowerneck -0.398903 -3.37588 2.77069
upperneck 1.72586 -4.08088 -16.3435
head 0.158905 -2.00509 -5.36453
rclavicle 2.42517e-014 6.83819e-014
rhumerus -13.5676 34.7893 -49.6036
rradius 86.6016
rwrist 2.68313
rhand -22.3898 -0.675921
rfingers 7.12502
rthumb 4.03238 -30.6175
lclavicle 2.42517e-014 6.83819e-014
lhumerus 18.9093 2.6267 11.181
lradius 91.1
lwrist 9.99675
lhand -18.5285 -6.40157
lfingers 7.12502
lthumb 7.7603 23.436
rfemur 5.85584 18.2625 6.98458
rtibia 18.6184
rfoot -13.8805 -11.5321
rtoes -20.8378
lfemur 4.66672 -6.34145 -17.8448
ltibia 24.7551
lfoot -19.9218 12.7744
ltoes -10.0527
